<svg xmlns="http://www.w3.org/2000/svg" viewBox="0 0 64 64">
  <defs>
    <linearGradient id="g" x1="0" x2="1" y1="1" y2="0">
      <stop offset="0" stop-color="#1D4ED8" />
      <stop offset="1" stop-color="#F97316" />
    </linearGradient>
  </defs>
  <rect width="64" height="64" rx="14" fill="#0F172A" />
  <path d="M14 46V18h9.5c6.5 0 10.5 3.7 10.5 9.2 0 4.2-2.4 7.2-6.1 8.5l7.2 10.3H27l-6.3-9.5h-3V46H14zm9.7-14.3c2.6 0 4.1-1.6 4.1-4s-1.5-4-4.1-4h-3.7v8h3.7z" fill="url(#g)" />
  <path d="M38 18h6.5l5.5 9 5.5-9H62l-8.1 13 8.3 15h-6.5l-5.7-9.8-5.8 9.8H38l8.4-13L38 18z" fill="#10B981" />
</svg>
